<?xml version="1.0" standalone="no"?>
<!DOCTYPE svg PUBLIC "-//W3C//DTD SVG 20010904//EN"
 "http://www.w3.org/TR/2001/REC-SVG-20010904/DTD/svg10.dtd">
<svg version="1.0" xmlns="http://www.w3.org/2000/svg"
 width="512.000000pt" height="512.000000pt" viewBox="0 0 512.000000 512.000000"
 preserveAspectRatio="xMidYMid meet">

<g transform="translate(0.000000,512.000000) scale(0.100000,-0.100000)"
fill="#000000" stroke="none">
<path d="M3750 5109 c-241 -38 -427 -134 -600 -308 -240 -242 -349 -532 -329
-878 8 -131 28 -224 79 -350 66 -164 149 -282 394 -558 290 -327 375 -443 482
-659 74 -151 86 -166 129 -166 43 0 60 22 133 170 99 202 180 317 418 586 292
331 377 445 445 603 102 239 123 537 53 777 -53 184 -140 330 -279 470 -105
105 -182 160 -309 219 -191 89 -423 125 -616 94z m282 -520 c98 -20 196 -75
274 -153 85 -86 128 -158 154 -262 81 -314 -102 -624 -415 -704 -43 -11 -106
-20 -140 -20 -213 0 -422 131 -514 322 -65 138 -78 259 -41 402 26 104 69 176
154 262 76 76 164 127 259 150 66 16 200 17 269 3z"/>
<path d="M2250 4533 c-269 -15 -601 -103 -853 -227 -680 -334 -1138 -965
-1253 -1726 -25 -160 -24 -463 0 -625 78 -518 313 -974 686 -1328 537 -511
1280 -726 2005 -582 654 131 1229 554 1547 1142 248 456 334 989 240 1487
l-17 89 -71 -84 c-154 -182 -215 -277 -334 -514 -46 -92 -63 -116 -104 -147
-49 -36 -138 -68 -191 -68 -54 0 -142 32 -191 69 -43 32 -58 55 -127 191 -84
167 -152 274 -242 385 -119 148 -341 394 -355 394 -27 1 -117 -57 -154 -101
-65 -75 -90 -141 -90 -238 -1 -146 12 -160 239 -260 144 -62 176 -106 185
-251 5 -83 10 -103 33 -138 50 -75 168 -127 311 -136 60 -4 89 -11 122 -30 50
-30 103 -101 111 -150 8 -48 -14 -77 -97 -130 -110 -72 -135 -114 -128 -215 3
-48 1 -47 110 -94 78 -34 88 -56 64 -145 -39 -140 -40 -149 -27 -190 6 -22 24
-54 38 -72 l27 -32 -49 -44 c-71 -63 -207 -159 -302 -214 -422 -244 -933 -325
-1403 -223 -473 103 -877 360 -1168 742 -438 576 -529 1318 -243 1992 57 134
58 135 66 55 22 -224 102 -440 217 -593 110 -145 217 -210 501 -303 201 -66
253 -92 294 -145 21 -29 28 -50 31 -99 6 -93 -19 -130 -153 -230 -90 -66 -110
-94 -110 -155 0 -78 43 -119 251 -238 39 -23 86 -58 104 -78 37 -42 36 -55 -5
-153 -32 -77 -30 -110 18 -221 31 -72 32 -80 32 -208 0 -132 0 -134 27 -157
85 -73 228 -16 272 110 36 101 95 211 138 254 54 55 97 84 228 155 151 82 193
115 224 177 40 81 31 187 -28 314 -79 171 -204 263 -571 421 -114 49 -181 112
-214 199 -13 33 -33 130 -45 215 -37 247 -51 260 -232 216 -138 -35 -168 -31
-219 25 -45 50 -55 76 -55 145 0 99 74 203 179 252 47 21 63 24 125 19 128
-10 236 -68 361 -197 124 -128 174 -152 243 -116 73 39 150 162 173 278 16 78
7 103 -44 129 -85 43 -110 88 -84 150 21 49 77 101 202 187 180 125 217 169
195 227 -17 46 -77 87 -262 181 -137 70 -204 110 -235 140 -128 129 -20 216
286 232 l124 7 23 90 c12 50 30 107 39 129 9 21 15 40 13 42 -2 2 -62 8 -132
14 -123 10 -172 10 -296 3z"/>
</g>
</svg>
