<?xml version="1.0" standalone="no"?>
<!DOCTYPE svg PUBLIC "-//W3C//DTD SVG 20010904//EN"
 "http://www.w3.org/TR/2001/REC-SVG-20010904/DTD/svg10.dtd">
<svg version="1.0" xmlns="http://www.w3.org/2000/svg"
 width="512.000000pt" height="512.000000pt" viewBox="0 0 512.000000 512.000000"
 preserveAspectRatio="xMidYMid meet">

<g transform="translate(0.000000,512.000000) scale(0.100000,-0.100000)"
fill="#000000" stroke="none">
<path d="M2088 5099 c-65 -34 -72 -59 -78 -272 l-5 -188 -135 -45 c-74 -25
-193 -74 -265 -109 l-130 -65 -130 130 c-145 145 -171 160 -247 140 -38 -10
-82 -51 -350 -318 -403 -404 -396 -379 -178 -597 l130 -130 -65 -130 c-35 -71
-84 -191 -109 -265 l-45 -135 -188 -5 c-214 -6 -239 -13 -273 -80 -19 -37 -20
-58 -20 -470 0 -576 -18 -542 293 -550 l188 -5 45 -135 c25 -74 74 -193 109
-265 l65 -130 -130 -130 c-145 -145 -160 -171 -140 -247 10 -37 51 -83 318
-350 267 -267 313 -308 350 -318 76 -20 102 -5 247 140 l131 130 129 -64 c72
-36 191 -85 265 -110 l135 -45 5 -188 c6 -214 13 -239 80 -273 37 -19 58 -20
470 -20 576 0 542 -18 550 294 l5 189 50 14 c105 30 249 87 362 144 l117 60
131 -131 c145 -145 171 -160 247 -140 37 10 83 51 350 318 267 267 308 313
318 350 20 76 5 102 -140 247 l-130 131 64 129 c36 72 85 191 110 265 l45 135
188 5 c214 6 239 13 273 80 19 37 20 58 20 470 0 576 18 542 -293 550 l-188 5
-45 135 c-25 74 -74 193 -110 265 l-64 129 130 131 c145 145 160 171 140 247
-10 37 -52 83 -318 350 -268 267 -312 308 -350 318 -76 20 -102 5 -247 -140
l-131 -131 -117 60 c-113 57 -257 114 -362 144 l-50 14 -5 189 c-6 215 -13
240 -80 274 -38 19 -58 20 -472 20 -411 -1 -435 -2 -470 -21z m754 -1169 c279
-58 495 -177 703 -385 129 -129 192 -215 268 -365 100 -200 141 -379 141 -620
0 -299 -73 -540 -239 -790 -64 -97 -268 -301 -365 -365 -515 -342 -1166 -322
-1645 50 -267 207 -445 492 -517 828 -31 146 -31 408 0 554 58 271 174 490
361 685 104 109 195 182 316 251 149 87 342 152 517 176 110 15 346 5 460 -19z"/>
<path d="M1888 3289 c-23 -12 -46 -35 -58 -59 -19 -38 -20 -58 -20 -670 0
-612 1 -632 20 -670 13 -26 34 -47 60 -60 38 -19 58 -20 670 -20 612 0 632 1
670 20 26 13 47 34 60 60 19 38 20 58 20 670 0 612 -1 632 -20 670 -13 26 -34
47 -60 60 -36 18 -58 20 -280 20 l-240 0 0 -165 c0 -194 -11 -230 -80 -265
-51 -26 -93 -25 -142 2 -68 39 -78 71 -78 263 l0 165 -242 0 c-222 -1 -246 -3
-280 -21z"/>
</g>
</svg>
