<?xml version="1.0" standalone="no"?>
<!DOCTYPE svg PUBLIC "-//W3C//DTD SVG 20010904//EN"
 "http://www.w3.org/TR/2001/REC-SVG-20010904/DTD/svg10.dtd">
<svg version="1.0" xmlns="http://www.w3.org/2000/svg"
 width="390.000000pt" height="327.000000pt" viewBox="0 0 390.000000 327.000000"
 preserveAspectRatio="xMidYMid meet">

<g transform="translate(0.000000,327.000000) scale(0.100000,-0.100000)"
fill="#000000" stroke="none">
<path d="M1190 2454 c-40 -15 -60 -29 -65 -46 -4 -10 -29 -39 -56 -65 -27 -25
-49 -55 -49 -65 0 -37 -19 -58 -53 -58 -47 0 -57 15 -57 87 0 35 -3 63 -7 63
-4 0 -24 -17 -45 -37 -24 -23 -38 -31 -38 -22 0 8 20 35 45 59 25 24 45 52 45
62 0 16 -10 18 -89 18 l-88 0 -37 -55 c-20 -30 -38 -55 -40 -55 -2 0 -19 25
-37 55 -32 53 -35 55 -76 55 l-43 0 0 -150 0 -150 35 0 35 0 0 81 c0 48 4 79
10 77 5 -1 25 -27 43 -57 l34 -54 27 46 c48 82 56 81 56 -12 l0 -81 40 0 c39
0 40 1 40 35 0 37 14 48 23 16 14 -53 150 -78 211 -38 33 22 56 72 56 123 0
36 1 36 19 20 10 -9 50 -28 87 -41 68 -24 69 -24 90 -5 37 36 46 26 42 -45
l-3 -66 89 3 89 3 35 93 c19 50 38 92 42 92 4 0 23 -42 43 -92 l35 -93 132 -3
c116 -2 138 0 174 17 54 27 76 65 76 134 0 45 -5 61 -26 87 -41 49 -73 60
-169 60 l-85 0 0 -134 c0 -74 -4 -137 -9 -140 -4 -3 -36 58 -69 137 -60 140
-62 142 -95 145 -19 2 -38 -3 -44 -10 -6 -7 -34 -69 -63 -138 -29 -69 -56
-129 -61 -134 -5 -6 -9 32 -9 92 0 56 -3 102 -7 102 -4 0 -24 -16 -45 -37 -27
-27 -40 -34 -50 -26 -7 6 -39 18 -70 27 -64 18 -75 28 -53 46 15 12 45 7 103
-16 14 -6 17 53 4 74 -9 13 -97 25 -122 16z m772 -104 c43 -53 3 -130 -67
-130 l-35 0 0 81 0 82 42 -6 c27 -4 49 -14 60 -27z"/>
<path d="M1020 2388 l0 -62 45 44 c25 24 45 52 45 62 0 15 -8 18 -45 18 l-45
0 0 -62z"/>
<path d="M1349 2448 c-4 -21 -2 -118 3 -118 13 0 78 84 78 102 0 14 -8 18 -40
18 -22 0 -40 -1 -41 -2z"/>
<path d="M1114 2215 c-19 -29 -20 -27 23 -49 44 -22 55 -20 88 14 l29 30 -25
0 c-13 0 -37 7 -53 15 -38 20 -43 19 -62 -10z"/>
<path d="M500 1800 l0 -310 80 0 80 0 0 75 c0 69 2 77 31 110 17 19 34 35 38
35 4 0 40 -50 81 -110 l73 -110 189 2 189 3 73 185 c40 102 76 194 80 205 7
19 8 19 21 -6 8 -14 38 -90 68 -170 30 -79 62 -161 71 -181 l16 -38 175 0 175
0 0 155 c0 85 3 155 8 155 4 0 25 -30 48 -68 22 -37 65 -106 95 -154 l54 -88
368 0 367 0 0 70 0 70 -150 0 c-82 0 -150 3 -150 6 0 4 37 48 83 98 45 50 113
125 150 167 l67 77 0 66 0 66 -265 0 -265 0 0 -75 0 -74 145 -3 145 -3 -67
-76 c-247 -276 -233 -257 -233 -310 0 -27 -4 -49 -10 -49 -16 0 -135 183 -121
188 27 9 75 59 92 97 22 48 24 133 5 178 -7 18 -26 44 -42 59 -56 52 -93 60
-296 66 l-188 5 0 -296 c0 -163 -4 -298 -9 -301 -8 -5 -30 43 -186 412 l-77
182 -82 0 -81 0 -32 -73 c-39 -87 -198 -463 -212 -500 -6 -15 -14 -27 -19 -27
-4 0 -59 75 -121 166 -113 166 -113 166 -94 187 11 12 55 63 99 112 44 50 88
100 98 113 l19 22 -100 0 -100 0 -102 -120 c-56 -66 -106 -120 -111 -120 -6 0
-10 51 -10 120 l0 120 -80 0 -80 0 0 -310z m1629 136 c31 -28 28 -79 -5 -105
-22 -17 -41 -21 -105 -21 l-79 0 0 76 0 76 84 -3 c65 -3 89 -8 105 -23z"/>
<path d="M3240 1800 l0 -310 85 0 85 0 0 310 0 310 -85 0 -85 0 0 -310z"/>
<path d="M2890 1765 l0 -75 145 0 145 0 0 75 0 75 -145 0 -145 0 0 -75z"/>
<path d="M1959 1430 c-117 -19 -189 -94 -189 -195 0 -105 56 -157 211 -195 54
-14 102 -32 118 -46 l28 -23 62 63 63 63 -27 21 c-27 21 -125 62 -149 62 -7 0
-36 7 -64 15 -63 19 -83 47 -55 77 15 17 27 19 74 15 31 -3 78 -16 107 -31
l51 -26 40 56 c28 39 42 52 46 42 3 -8 4 -132 3 -276 l-3 -262 258 0 257 0 0
75 0 75 -170 0 -170 0 0 50 0 50 150 0 150 0 0 70 0 70 -150 0 -150 0 0 50 0
50 165 0 165 0 0 70 0 70 -250 0 -250 0 0 -24 c0 -36 -13 -39 -61 -12 -74 41
-178 59 -260 46z"/>
<path d="M1295 1318 c-26 -62 -78 -185 -115 -273 -118 -278 -105 -287 -108 68
l-2 308 -88 -3 -87 -3 -3 -112 -3 -113 -109 0 -110 0 0 115 0 115 -85 0 -85 0
0 -315 0 -315 85 0 85 0 0 120 0 120 32 0 c27 0 46 13 110 77 l78 78 0 -198 0
-197 183 0 182 0 82 208 c44 114 85 205 90 204 8 -4 15 -21 113 -274 l53 -138
94 0 93 0 -15 36 c-8 20 -15 38 -15 39 0 2 30 -12 68 -30 112 -57 116 -56 194
22 l67 68 -57 2 c-42 2 -75 11 -124 37 l-67 34 -28 -35 c-67 -86 -59 -80 -77
-45 -9 18 -43 96 -76 174 -32 79 -77 186 -99 238 l-40 95 -84 3 -84 3 -48
-113z"/>
<path d="M2810 1105 l0 -315 85 0 85 0 0 163 c0 90 3 166 6 170 4 3 23 -16 43
-42 20 -26 79 -102 131 -169 l95 -122 78 0 77 0 0 315 0 315 -85 0 -85 0 0
-160 c0 -88 -3 -160 -8 -160 -4 0 -63 72 -131 160 l-124 160 -84 0 -83 0 0
-315z"/>
</g>
</svg>
