<?xml version="1.0" standalone="no"?>
<!DOCTYPE svg PUBLIC "-//W3C//DTD SVG 20010904//EN"
 "http://www.w3.org/TR/2001/REC-SVG-20010904/DTD/svg10.dtd">

<svg version="1.0" xmlns="http://www.w3.org/2000/svg"
 width="390.000000pt" height="327.000000pt" viewBox="0 0 390.000000 327.000000"
 preserveAspectRatio="xMidYMid meet">
<g transform="translate(0.000000,327.000000) scale(0.100000,-0.100000)"
fill="#000000" stroke="none">
<path d="M1209 2877 c-203 -57 -226 -344 -35 -433 195 -91 401 103 317 298
-47 111 -165 167 -282 135z"/>
<path d="M2220 2714 c-177 -38 -308 -111 -442 -246 -54 -53 -98 -104 -98 -113
0 -15 66 -108 81 -113 5 -2 9 1 9 7 0 20 103 137 163 186 136 109 291 165 459
165 414 0 741 -327 741 -740 -1 -156 -39 -279 -130 -417 l-35 -53 -185 0
c-173 0 -187 1 -215 21 -16 12 -51 30 -76 39 -46 17 -47 19 -55 70 -4 28 -16
79 -27 113 -25 76 -25 101 1 182 21 64 34 76 56 54 21 -21 91 -12 147 21 71
40 109 85 135 157 31 86 42 104 88 139 23 18 39 35 36 38 -11 11 -86 6 -173
-10 -155 -28 -255 -103 -270 -201 -10 -61 0 -84 22 -51 34 51 170 160 183 146
3 -3 -25 -32 -62 -65 -38 -33 -79 -79 -93 -101 -17 -28 -30 -40 -41 -36 -16 4
-23 -9 -64 -111 l-16 -39 -26 43 c-18 31 -28 39 -34 30 -6 -10 -21 0 -61 37
-29 28 -79 68 -111 89 -31 21 -55 40 -53 43 10 9 156 -72 187 -105 41 -41 50
-42 42 0 -19 99 -85 161 -200 187 -56 13 -229 15 -261 3 -21 -8 -19 -11 30
-43 42 -28 61 -50 91 -105 51 -96 111 -142 210 -165 46 -10 107 2 107 21 0 5
7 9 14 9 31 0 94 -167 111 -291 l6 -47 -38 -6 c-21 -4 -57 -20 -80 -37 l-41
-29 -194 0 -194 0 -17 -35 c-9 -20 -33 -45 -52 -56 -19 -12 -35 -24 -35 -29 0
-14 140 -125 203 -160 145 -82 271 -115 437 -114 120 1 209 17 310 56 218 84
405 270 497 493 38 91 66 259 60 355 -26 401 -309 735 -691 814 -95 19 -265
20 -356 0z"/>
<path d="M940 2382 c-136 -90 -228 -241 -275 -451 -31 -136 -31 -166 -2 -267
28 -95 79 -177 150 -239 48 -41 123 -85 147 -85 6 0 10 41 10 105 0 63 4 105
10 105 7 0 10 -182 10 -525 0 -580 0 -583 62 -619 61 -36 136 -19 175 41 17
25 18 69 21 525 l3 498 24 0 24 0 3 -502 c3 -485 4 -504 23 -530 11 -15 33
-33 49 -39 58 -25 126 -9 161 39 20 26 20 47 25 842 5 877 5 868 52 666 17
-76 21 -129 24 -324 3 -261 6 -272 70 -272 85 0 94 23 94 249 0 365 -59 590
-181 695 -57 48 -102 57 -269 54 l-144 -3 -13 -94 c-14 -105 -38 -197 -54
-206 -5 -4 -20 0 -33 8 l-23 15 19 74 c10 40 22 103 25 141 l6 67 -38 0 c-131
0 -238 -112 -263 -275 -10 -61 -1 -159 18 -209 31 -82 137 -206 217 -253 69
-40 133 -11 133 60 0 24 -16 44 -81 105 -99 94 -129 147 -129 232 0 82 49 184
80 165 5 -3 -2 -22 -15 -41 -24 -36 -45 -93 -45 -126 0 -30 17 -29 30 2 7 17
17 30 22 30 9 0 66 -23 236 -97 45 -20 82 -42 82 -49 0 -7 -7 -28 -15 -46 -8
-18 -28 -67 -45 -108 -17 -41 -37 -88 -44 -105 -7 -16 -24 -56 -37 -87 -13
-32 -30 -58 -37 -58 -14 0 -302 118 -314 129 -5 4 -1 26 8 49 17 41 17 42 -10
77 -15 19 -39 61 -54 93 -24 51 -27 68 -27 172 0 108 2 119 31 180 57 121 152
189 268 191 72 1 9 18 -69 18 -49 0 -78 -5 -95 -17z"/>
<path d="M1080 1942 c0 -9 28 -25 70 -41 14 -5 51 -21 82 -35 34 -15 60 -21
63 -16 4 6 -6 15 -22 20 -15 6 -37 14 -48 19 -67 31 -138 61 -141 61 -2 0 -4
-4 -4 -8z"/>
<path d="M1070 1885 c7 -8 17 -15 22 -15 5 0 47 -17 94 -37 46 -20 87 -33 91
-30 8 9 13 7 -102 55 -109 46 -124 50 -105 27z"/>
</g>
</svg>
