<?xml version="1.0" standalone="no"?>
<!DOCTYPE svg PUBLIC "-//W3C//DTD SVG 20010904//EN"
 "http://www.w3.org/TR/2001/REC-SVG-20010904/DTD/svg10.dtd">


<svg version="1.0" xmlns="http://www.w3.org/2000/svg"
     width="512.000000pt" height="512.000000pt" viewBox="0 0 512.000000 512.000000"
     preserveAspectRatio="xMidYMid meet">

    <g transform="translate(0.000000,512.000000) scale(0.100000,-0.100000)"
        fill="#000000" stroke="none">
        <path d="M36 4020 c-14 -17 -28 -45 -31 -63 -3 -18 -4 -470 -3 -1004 l3 -973
            28 -27 27 -28 369 0 369 0 26 24 c15 14 31 43 37 65 5 23 57 205 115 405 168
            581 263 974 293 1221 15 119 15 125 -19 163 -95 109 -386 181 -929 232 -240
            22 -254 21 -285 -15z"/>
        <path d="M4785 3833 c-342 -17 -702 -79 -980 -169 -124 -40 -175 -77 -175
            -126 0 -16 20 -68 44 -116 141 -281 460 -1151 582 -1587 11 -39 28 -71 49 -92
            l33 -33 360 0 359 0 26 24 c14 13 28 39 32 57 3 19 4 474 3 1011 l-3 978 -28
            27 c-26 27 -32 28 -130 29 -56 0 -133 -1 -172 -3z"/>
        <path d="M2471 3580 c-77 -28 -149 -73 -255 -161 -236 -196 -394 -420 -399
            -566 -2 -55 -2 -56 36 -76 59 -30 162 -35 220 -9 52 23 136 98 167 147 28 45
            61 65 126 75 30 5 102 30 161 55 106 45 150 53 210 36 18 -5 134 -98 279 -223
            137 -118 296 -252 354 -298 242 -194 439 -373 586 -534 35 -39 66 -67 69 -64
            12 12 -361 1027 -456 1242 l-44 98 -120 43 c-66 23 -221 82 -345 130 -124 49
            -254 96 -290 107 -88 25 -226 24 -299 -2z"/>
        <path d="M1446 3393 c-2 -10 -19 -83 -36 -163 -69 -316 -167 -684 -259 -969
            l-40 -125 39 -45 c89 -106 267 -260 610 -527 173 -135 509 -387 557 -417 64
            -41 183 -77 250 -77 l58 0 -182 182 c-109 110 -184 194 -188 209 -4 15 0 42 9
            63 18 43 72 72 115 61 16 -4 119 -99 261 -240 157 -156 243 -234 260 -237 83
            -12 158 29 181 100 l11 34 -255 257 c-158 158 -258 266 -262 282 -10 43 19 97
            61 115 21 9 48 13 63 9 16 -4 133 -113 309 -288 l282 -282 78 0 c72 0 81 2
            113 29 76 64 97 33 -249 380 -209 210 -312 320 -316 339 -15 64 57 136 121
            121 19 -4 134 -112 353 -330 351 -350 340 -341 415 -310 41 17 75 68 75 112 0
            18 -14 58 -31 90 -71 136 -230 288 -694 661 -82 66 -209 169 -281 229 -73 60
            -158 130 -191 156 -58 45 -59 46 -88 30 -17 -8 -32 -18 -35 -21 -8 -11 -91
            -39 -132 -44 -29 -4 -50 -19 -95 -65 -76 -77 -170 -137 -256 -164 -84 -25
            -205 -21 -307 11 -83 26 -131 66 -167 139 -23 47 -28 69 -27 127 3 149 93 342
            244 525 l51 60 -210 0 c-191 0 -210 -2 -215 -17z"/>
    </g>
</svg>
