<?xml version="1.0" standalone="no"?>
<!DOCTYPE svg PUBLIC "-//W3C//DTD SVG 20010904//EN"
 "http://www.w3.org/TR/2001/REC-SVG-20010904/DTD/svg10.dtd">
<svg version="1.0" xmlns="http://www.w3.org/2000/svg"
 width="390.000000pt" height="327.000000pt" viewBox="0 0 390.000000 327.000000"
 preserveAspectRatio="xMidYMid meet">

<g transform="translate(0.000000,327.000000) scale(0.100000,-0.100000)"
fill="#000000" stroke="none">
<path d="M1282 2830 c-55 -13 -109 -58 -137 -113 -43 -87 -29 -176 39 -243 95
-95 246 -81 323 30 38 53 45 154 15 212 -45 88 -148 137 -240 114z"/>
<path d="M2409 2825 c-57 -18 -122 -86 -140 -145 -26 -86 20 -197 102 -245 25
-15 52 -20 105 -20 60 0 77 4 112 27 22 15 53 48 68 73 23 40 26 54 22 119 -3
65 -7 79 -34 113 -59 74 -151 104 -235 78z"/>
<path d="M1087 2380 c-64 -59 -104 -139 -113 -229 l-7 -61 363 0 362 0 -4 64
c-5 86 -55 184 -120 239 l-48 40 -39 -27 c-54 -38 -127 -58 -176 -50 -42 7
-129 47 -140 64 -11 17 -22 12 -78 -40z"/>
<path d="M2236 2389 c-25 -23 -58 -61 -73 -86 -27 -46 -53 -136 -53 -185 l0
-28 360 0 360 0 0 50 c0 95 -51 198 -130 260 l-40 32 -45 -30 c-69 -45 -131
-57 -198 -38 -29 9 -70 27 -91 41 -20 14 -38 25 -40 25 -2 0 -24 -18 -50 -41z"/>
<path d="M1300 1851 l0 -148 -66 -7 c-78 -8 -129 -32 -171 -79 -29 -33 -31
-41 -38 -150 -4 -64 -4 -121 0 -126 3 -6 26 -11 51 -11 l44 0 0 109 0 110 33
23 32 23 360 0 360 0 3 -132 3 -133 44 0 44 0 3 133 3 132 325 3 c353 3 398 0
432 -28 21 -16 23 -28 26 -129 l4 -111 50 0 51 0 -8 123 c-7 128 -13 146 -62
192 -39 35 -75 45 -204 53 l-114 7 -3 148 -3 147 -44 0 -45 0 0 -150 0 -150
-505 0 -505 0 0 150 0 150 -50 0 -50 0 0 -149z"/>
<path d="M979 1153 c-66 -34 -110 -98 -117 -173 -4 -40 1 -60 23 -105 32 -66
73 -100 139 -115 81 -18 146 2 203 62 41 42 53 76 53 144 0 71 -18 112 -69
156 -74 63 -148 73 -232 31z"/>
<path d="M1875 1162 c-85 -40 -128 -107 -129 -197 0 -67 11 -94 58 -143 46
-50 83 -65 151 -65 68 0 105 15 151 65 47 49 58 76 58 143 -1 66 -16 104 -60
149 -62 62 -158 82 -229 48z"/>
<path d="M2766 1166 c-47 -18 -104 -70 -122 -113 -17 -38 -18 -130 -3 -170 12
-33 64 -90 99 -108 79 -40 179 -24 243 40 79 78 88 186 25 277 -46 67 -164
103 -242 74z"/>
<path d="M847 743 c-74 -56 -123 -149 -134 -254 l-6 -59 363 0 363 0 -5 68
c-7 90 -44 168 -110 227 -53 48 -69 53 -87 31 -6 -8 -35 -24 -63 -36 -75 -32
-158 -25 -228 18 -28 18 -52 32 -54 32 -1 0 -19 -12 -39 -27z"/>
<path d="M1709 723 c-28 -26 -61 -68 -74 -93 -25 -49 -50 -163 -41 -186 5 -12
64 -14 363 -12 l358 3 -3 53 c-4 76 -36 153 -89 212 -64 72 -77 77 -121 48
-59 -38 -90 -48 -146 -48 -56 0 -114 19 -155 51 -13 10 -28 19 -33 19 -5 0
-32 -21 -59 -47z"/>
<path d="M2592 725 c-67 -60 -103 -135 -110 -225 l-5 -70 363 0 363 0 -7 61
c-10 101 -66 205 -135 254 l-38 26 -53 -33 c-42 -26 -65 -33 -119 -36 -60 -4
-72 -1 -135 32 -38 20 -70 36 -71 36 -2 0 -26 -20 -53 -45z"/>
</g>
</svg>
