<?xml version="1.0" standalone="no"?>
<!DOCTYPE svg PUBLIC "-//W3C//DTD SVG 20010904//EN"
 "http://www.w3.org/TR/2001/REC-SVG-20010904/DTD/svg10.dtd">
 
<svg version="1.0" xmlns="http://www.w3.org/2000/svg"
 width="312.000000pt" height="262.000000pt" viewBox="0 0 312.000000 262.000000"
 preserveAspectRatio="xMidYMid meet">

<g transform="translate(0.000000,262.000000) scale(0.100000,-0.100000)"
fill="#000000" stroke="none">
<path d="M2385 2473 c-38 -14 -86 -37 -105 -51 -128 -95 -202 -255 -185 -407
12 -113 45 -167 240 -395 107 -125 186 -210 197 -210 19 0 333 360 385 442 40
64 57 141 50 238 -6 94 -37 176 -91 243 -121 149 -316 205 -491 140z m238 -58
c154 -40 265 -173 275 -331 9 -136 -5 -160 -249 -446 l-117 -137 -153 180
c-180 211 -183 216 -205 299 -47 185 79 390 270 436 70 17 112 17 179 -1z"/>
<path d="M2448 2256 c-104 -46 -156 -179 -109 -281 70 -155 290 -167 377 -20
19 33 24 56 24 107 0 58 -4 72 -32 114 -43 63 -102 94 -177 93 -31 0 -68 -6
-83 -13z m153 -78 c124 -70 63 -269 -78 -255 -139 14 -178 185 -60 257 42 26
90 25 138 -2z"/>
<path d="M935 2040 c-16 -16 -36 -32 -46 -35 -37 -12 -27 -68 13 -81 10 -3 21
-17 25 -32 3 -14 40 -58 81 -97 l75 -71 -9 -49 c-8 -45 -12 -50 -38 -53 -16
-2 -54 8 -85 22 -43 19 -73 25 -123 25 -89 -1 -158 28 -158 66 0 15 -4 35 -10
45 -10 19 -59 40 -96 40 -12 0 -35 7 -51 16 -27 16 -31 16 -66 -1 -49 -23 -87
-74 -94 -124 -5 -37 -3 -41 21 -47 l27 -6 -20 -22 c-32 -34 -26 -44 37 -51 71
-9 119 -28 155 -62 38 -37 35 -65 -10 -94 -69 -44 -52 -118 45 -196 120 -97
159 -146 146 -185 -10 -33 -34 -47 -80 -48 -47 0 -79 -25 -53 -41 8 -5 19 -9
25 -9 7 0 46 -38 89 -84 81 -88 104 -101 198 -109 55 -5 94 -32 76 -54 -6 -7
-20 -13 -29 -13 -66 0 -64 -29 5 -92 31 -28 54 -56 52 -62 -2 -6 -19 -13 -37
-16 -41 -6 -50 -27 -16 -36 43 -10 50 -28 32 -75 -9 -23 -14 -44 -11 -47 11
-11 53 22 94 74 35 45 47 54 74 54 36 0 77 24 77 44 0 17 36 48 87 76 22 12
51 35 62 51 20 27 130 103 184 127 48 21 80 15 126 -25 46 -39 121 -128 121
-144 0 -5 -18 -12 -40 -15 -80 -13 -89 -67 -23 -136 44 -45 39 -63 -19 -78
-63 -15 -93 -33 -96 -57 -3 -18 7 -27 47 -48 33 -16 60 -39 76 -65 14 -22 30
-40 35 -40 5 0 32 -22 60 -50 38 -38 58 -50 81 -50 38 0 86 24 93 47 17 61 17
87 0 134 l-19 51 33 26 c31 26 32 30 32 101 0 63 2 72 16 67 68 -26 104 -8
104 52 0 31 2 34 23 28 65 -20 71 1 22 72 -19 28 -35 58 -35 65 0 8 13 31 29
51 25 31 28 41 19 60 -8 18 -6 29 7 50 11 16 15 35 11 50 -4 17 -1 28 10 34
17 9 16 22 -1 79 -15 47 106 123 225 141 76 11 113 3 152 -35 21 -20 31 -24
40 -15 20 20 -7 83 -59 138 l-48 51 -120 6 c-66 3 -128 8 -138 12 -21 9 -33
53 -18 68 6 6 11 23 11 38 0 22 -8 31 -45 49 -59 29 -91 69 -110 138 -35 127
-48 159 -84 207 -21 28 -55 76 -76 108 -21 32 -54 69 -74 83 -32 22 -37 23
-46 9 -85 -136 -88 -139 -158 -167 -74 -30 -99 -54 -116 -109 -15 -51 -44 -73
-104 -79 -41 -4 -57 -1 -77 13 -14 10 -45 32 -68 48 -32 22 -51 46 -70 89 -23
52 -31 59 -55 60 -20 0 -31 7 -40 27 -6 15 -34 49 -61 76 -40 40 -54 48 -78
45 -16 -3 -33 1 -39 9 -21 24 -73 16 -104 -17z"/>
<path d="M2776 1204 c-8 -22 -8 -64 2 -64 22 1 58 53 47 70 -10 16 -42 12 -49
-6z"/>
<path d="M282 843 c-54 -5 -63 -25 -30 -61 14 -15 38 -51 54 -80 15 -30 40
-62 55 -73 19 -13 29 -32 34 -59 6 -36 10 -41 47 -51 43 -11 73 -37 99 -85 16
-31 44 -41 229 -89 83 -21 88 -11 45 97 -19 48 -35 102 -35 119 0 26 -6 33
-40 47 l-41 17 6 46 c6 42 4 48 -21 68 -34 27 -48 27 -100 -4 -43 -25 -44 -25
-75 -8 -17 10 -42 24 -55 31 -13 7 -24 22 -24 32 0 24 -51 61 -82 58 -12 -1
-42 -3 -66 -5z"/>
<path d="M2141 424 c-25 -32 -27 -50 -5 -58 19 -7 61 20 69 45 14 44 -32 54
-64 13z"/>
</g>
</svg>
